<svg xmlns="http://www.w3.org/2000/svg" width="195.361" height="106.657"><g data-name="Сгруппировать 35" fill-rule="evenodd"><path data-name="Контур 78" d="M27.316 106.657L-.001 1.67l164.3-.278 27.781 105.267z" fill="#fc9700"/><path data-name="Контур 79" d="M29.09 104.416L1.941.22 166.566 0l28.8 104.25z" fill="#f5b204"/><g data-name="Сгруппировать 33" fill="#fc9700"><path data-name="Контур 80" d="M122.099 93.441l5.956 10.224a1.974 1.974 0 002.7.712l8.521-4.964-6.949-11.928z"/><path data-name="Контур 81" d="M141.99 71.823l-5.392 3.141a7.651 7.651 0 00.508-1.316 4.122 4.122 0 00-2.921-5.013 4.168 4.168 0 00-5 2.911c-.308 1.173-.51 5.332.936 7.19l-.123.072c-.905-2.173-4.623-4.05-5.793-4.361a4.172 4.172 0 00-5 2.912 4.128 4.128 0 002.919 5.014 7.835 7.835 0 001.4.207l-5.393 3.141a1.976 1.976 0 00-.711 2.7l1.489 2.556a.986.986 0 001.348.355l11.077-6.452-1.985-3.408 3.408-1.986 1.985 3.409 11.077-6.453a.986.986 0 00.356-1.348l-1.489-2.556a1.975 1.975 0 00-2.7-.712zm-13.766 7.947s-.039.1-.283.24a9.693 9.693 0 01-5.3.46 2.152 2.152 0 01-1.521-2.611 2.1 2.1 0 012.582-1.5c1.822.487 4.683 2.773 4.525 3.415zm3.956-2.229c-.243.141-.346.128-.347.126-.636-.179-1.214-3.8-.738-5.62a2.124 2.124 0 114.1 1.107 9.693 9.693 0 01-3.015 4.384z"/><path data-name="Контур 82" d="M135.736 85.499l6.949 11.929 8.52-4.963a1.973 1.973 0 00.712-2.7l-5.956-10.225z"/></g></g></svg>