<svg xmlns="http://www.w3.org/2000/svg" width="76.269" height="68.342"><g data-name="Сгруппировать 39" fill="#fc9700" fill-rule="evenodd"><path data-name="Контур 19" d="M11.875 53.402l8.7 14.939h24.363l3.7-2.153-14.875-25.535z"/><path data-name="Контур 20" d="M53.168 7.102l-11.545 6.727a16.412 16.412 0 001.086-2.816A8.825 8.825 0 0036.457.281a8.921 8.921 0 00-10.7 6.232c-.659 2.509-1.091 11.413 2 15.391l-.263.153c-1.937-4.651-9.895-8.668-12.4-9.335a8.929 8.929 0 00-10.7 6.233 8.835 8.835 0 006.248 10.734 16.718 16.718 0 002.989.443L2.089 36.855a4.229 4.229 0 00-1.521 5.769l3.187 5.472a2.112 2.112 0 002.887.761l23.711-13.812-4.25-7.3 7.3-4.25 4.249 7.3 23.716-13.812a2.11 2.11 0 00.761-2.886l-3.191-5.468a4.226 4.226 0 00-5.773-1.523zm-29.468 17s-.083.21-.605.514c-2.521 1.468-8.858 1.652-11.352.984a4.6 4.6 0 01-3.256-5.588 4.5 4.5 0 015.527-3.219c3.9 1.041 10.024 5.935 9.686 7.309zm8.467-4.771c-.518.3-.739.274-.741.271-1.362-.384-2.6-8.126-1.581-12.031a4.548 4.548 0 118.782 2.369c-.653 2.503-3.938 7.925-6.459 9.395z"/><path data-name="Контур 21" d="M41.058 36.403l14.875 25.535 18.235-10.625a4.223 4.223 0 001.523-5.773L62.942 23.653z"/></g></svg>