<svg xmlns="http://www.w3.org/2000/svg" width="10.71" height="10.028"><path data-name="Контур 83" d="M10.041 2.669H7.923a2.632 2.632 0 00.373-.3 1.4 1.4 0 000-1.97 1.415 1.415 0 00-1.963 0 3.689 3.689 0 00-.954 2.269h-.048A3.694 3.694 0 004.377.399a1.391 1.391 0 00-1.964 1.97 2.706 2.706 0 00.374.3H.671a.67.67 0 00-.67.669v1.674a.335.335 0 00.335.335h.335v4.012a.67.67 0 00.669.669h8.031a.67.67 0 00.67-.669V5.343h.33a.335.335 0 00.335-.335V3.334a.67.67 0 00-.669-.669zM2.888.869a.715.715 0 011.014 0c.452.454.9 1.614.744 1.775a.221.221 0 01-.124.022 3.3 3.3 0 01-1.634-.771.732.732 0 010-1.026zM5.02 9.36H1.339V5.343H5.02v4.016zm0-4.686H.671v-1.34h4.35v1.335zM6.808.869a.721.721 0 111.014 1.026 3.3 3.3 0 01-1.634.771.22.22 0 01-.125-.022c-.155-.161.293-1.321.745-1.775zm2.563 8.49H5.69V5.343h3.681v4.016zm.67-4.686H5.69V3.334h4.351z" fill="#fc9700" fill-rule="evenodd"/></svg>