<svg xmlns="http://www.w3.org/2000/svg" width="8.204" height="9.333"><g data-name="Сгруппировать 34" fill="#fc9700" fill-rule="evenodd"><path data-name="Контур 86" d="M3.766.686a.142.142 0 10-.143.142.143.143 0 00.143-.142z"/><path data-name="Контур 87" d="M1.763 2.995h3.721a.137.137 0 000-.274H1.763a.137.137 0 000 .274z"/><path data-name="Контур 88" d="M1.763 3.856h3.721a.137.137 0 000-.274H1.763a.137.137 0 000 .274z"/><path data-name="Контур 89" d="M1.763 4.717h2.054a.137.137 0 000-.274H1.763a.137.137 0 000 .274z"/><path data-name="Контур 90" d="M3.267 5.443a.137.137 0 00-.137-.137H1.763a.137.137 0 100 .274H3.13a.138.138 0 00.137-.137z"/><path data-name="Контур 91" d="M5.308 7.412a.137.137 0 10-.142.234.785.785 0 00.4.131v.043a.137.137 0 10.273 0v-.058a.591.591 0 00.46-.479.508.508 0 00-.376-.571l-.084-.026v-.5a.46.46 0 01.117.065.137.137 0 00.179-.207.749.749 0 00-.3-.142v-.059a.137.137 0 00-.273 0v.049a.524.524 0 00-.446.425c-.055.3.155.46.446.565V7.5a.517.517 0 01-.259-.091zm.722-.171a.3.3 0 01-.19.233v-.5a.235.235 0 01.19.268zm-.64-.872a.247.247 0 01.174-.194v.415c-.117-.058-.196-.101-.174-.221z"/><path data-name="Контур 92" d="M7.842 6.218a2.16 2.16 0 00-.2-.476.487.487 0 00-.079-.586l-.185-.184a.487.487 0 00-.132-.095V1.461a.655.655 0 00-.654-.655H4.318v-.11a.7.7 0 10-1.391 0v.11H.653a.656.656 0 00-.654.655v7.218a.656.656 0 00.654.654h5.939a.658.658 0 00.644-.542.469.469 0 00.142-.1l.185-.185a.485.485 0 00.079-.585 2.187 2.187 0 00.2-.477.423.423 0 00.362-.418v-.392a.423.423 0 00-.362-.418zM2.958 1.08a.244.244 0 00.244-.244v-.14a.422.422 0 11.844 0v.14a.244.244 0 00.244.244h.7v.55a.049.049 0 01-.048.049h-2.64a.049.049 0 01-.049-.049v-.55zM.274 8.68V1.461a.382.382 0 01.381-.381h.162v6.989a.41.41 0 00.409.41h2.013a.137.137 0 100-.273H1.226a.137.137 0 01-.136-.137V1.08h.892v.55a.322.322 0 00.322.322h2.64a.322.322 0 00.322-.322v-.55h.891v3a.137.137 0 10.274 0v-3h.162a.382.382 0 01.381.381v3.372a.489.489 0 00-.18.059 2.305 2.305 0 00-.476-.2.424.424 0 00-.419-.361h-.392a.423.423 0 00-.418.361 2.282 2.282 0 00-.476.2.488.488 0 00-.586.08l-.184.184a.487.487 0 00-.08.586 2.26 2.26 0 00-.2.476.423.423 0 00-.361.418v.392a.422.422 0 00.361.418 2.29 2.29 0 00.2.477.487.487 0 00.08.585l.184.185a.487.487 0 00.586.079 2.23 2.23 0 00.476.2.494.494 0 00.023.088H.655a.381.381 0 01-.381-.38zm6.319.38h-.3a.423.423 0 00.024-.088 2.252 2.252 0 00.476-.2.479.479 0 00.149.055.383.383 0 01-.35.232zM7.93 7.029a.149.149 0 01-.149.149.2.2 0 00-.189.147 1.91 1.91 0 01-.208.5.2.2 0 00.009.214.213.213 0 01-.023.276l-.184.184a.213.213 0 01-.276.023.2.2 0 00-.214-.009 1.944 1.944 0 01-.5.208.2.2 0 00-.146.189.15.15 0 01-.15.149h-.392a.149.149 0 01-.149-.149.2.2 0 00-.147-.189 1.906 1.906 0 01-.5-.209.2.2 0 00-.214.01.213.213 0 01-.276-.023l-.185-.184a.214.214 0 01-.023-.276.2.2 0 00.01-.214 1.947 1.947 0 01-.209-.5.2.2 0 00-.189-.147.149.149 0 01-.149-.149v-.392a.149.149 0 01.149-.149.2.2 0 00.189-.146 1.954 1.954 0 01.209-.5.194.194 0 00-.01-.213.214.214 0 01.023-.276l.185-.185a.214.214 0 01.276-.025.2.2 0 00.214.01 1.941 1.941 0 01.5-.209.194.194 0 00.147-.188.15.15 0 01.149-.15h.39a.15.15 0 01.15.15.2.2 0 00.146.188 1.947 1.947 0 01.5.209.2.2 0 00.214-.01.214.214 0 01.165-.036h.013a.211.211 0 01.1.056l.184.185a.213.213 0 01.023.276.2.2 0 00-.009.213 1.924 1.924 0 01.208.5.2.2 0 00.189.147.149.149 0 01.149.149v.392z"/><path data-name="Контур 93" d="M5.703 5.195A1.632 1.632 0 004.11 6.451a.138.138 0 00.1.165.136.136 0 00.164-.1 1.364 1.364 0 11-.012.582.135.135 0 00-.16-.108.137.137 0 00-.108.16 1.638 1.638 0 101.607-1.953z"/></g></svg>